<?xml version="1.0" encoding="utf-8"?>
<!-- Generator: Adobe Illustrator 16.0.0, SVG Export Plug-In . SVG Version: 6.00 Build 0)  -->
<!DOCTYPE svg PUBLIC "-//W3C//DTD SVG 1.1//EN" "http://www.w3.org/Graphics/SVG/1.1/DTD/svg11.dtd">
<svg version="1.1" id="Layer_1" xmlns="http://www.w3.org/2000/svg" xmlns:xlink="http://www.w3.org/1999/xlink" x="0px" y="0px"
	 width="1000px" height="800px" viewBox="0 0 1000 800" enable-background="new 0 0 1000 800" xml:space="preserve">
<path fill="#8C8C8C" d="M175,206.25h650c13.808,0,25-11.192,25-25v-62.5c0-13.808-11.192-25-25-25H175c-13.808,0-25,11.192-25,25
	v62.5C150,195.058,161.192,206.25,175,206.25z M175,456.25h650c13.808,0,25-11.192,25-25v-62.5c0-13.808-11.192-25-25-25H175
	c-13.808,0-25,11.192-25,25v62.5C150,445.058,161.192,456.25,175,456.25z M175,706.25h650c13.808,0,25-11.192,25-25v-62.5
	c0-13.808-11.192-25-25-25H175c-13.808,0-25,11.192-25,25v62.5C150,695.058,161.192,706.25,175,706.25z"/>
</svg>
